<svg xmlns="http://www.w3.org/2000/svg" version="1.0" preserveAspectRatio="xMidYMid meet" viewBox="0 0 1920 1080">

<g transform="translate(0.000000,1080.000000) scale(0.100000,-0.100000)" fill="#000000" stroke="none">
<path d="M0 5400 l0 -5400 9600 0 9600 0 0 5400 0 5400 -9600 0 -9600 0 0 -5400z m9580 3055 c114 -7 120 -7 157 -2 18 2 30 0 27 -4 -2 -4 21 -5 52 -3 34 3 61 1 69 -6 9 -7 23 -9 37 -4 27 10 88 12 88 3 0 -6 48 -16 125 -26 22 -2 45 -9 52 -15 9 -8 13 -7 13 3 0 10 3 10 12 1 7 -7 20 -12 31 -12 10 0 16 -4 12 -9 -3 -6 10 -13 30 -17 40 -7 54 -22 34 -35 -10 -6 -6 -9 14 -9 26 0 40 -19 15 -21 -7 0 -3 -4 10 -10 13 -5 41 -8 63 -7 21 1 42 -2 46 -5 3 -4 -9 -7 -27 -7 -32 0 -33 -1 -14 -15 10 -8 41 -15 67 -15 33 0 57 -6 74 -20 l26 -20 -34 -7 c-33 -7 -33 -7 -9 -14 14 -4 41 -7 61 -8 19 -1 47 -7 61 -13 l27 -13 -37 -11 -37 -12 32 -1 c18 -1 47 -10 65 -21 18 -11 43 -20 55 -20 13 0 22 -4 20 -9 -1 -5 7 -17 18 -25 12 -9 14 -14 5 -11 -8 2 -31 0 -50 -4 l-35 -9 35 -1 c19 -1 42 -6 50 -11 12 -8 11 -11 -9 -16 -21 -6 -20 -8 15 -20 22 -8 50 -14 64 -15 23 0 23 -1 5 -9 -14 -6 -16 -9 -4 -9 8 -1 25 -12 37 -26 l22 -25 -22 0 c-43 0 6 -17 55 -19 10 -1 15 -5 12 -11 -3 -5 -32 -11 -63 -12 -45 -1 -49 -2 -18 -5 42 -5 76 -27 53 -36 -6 -3 -3 -6 9 -6 11 -1 29 -9 40 -19 10 -10 28 -22 39 -26 20 -8 19 -8 -2 -19 -21 -9 -22 -11 -5 -23 16 -13 16 -13 -3 -14 -39 0 2 -21 54 -27 46 -5 51 -8 33 -17 -16 -9 -17 -13 -7 -22 6 -7 21 -14 31 -17 14 -3 10 -6 -16 -12 -29 -7 -31 -9 -15 -16 16 -6 13 -8 -12 -8 -64 -2 -32 -19 46 -26 51 -4 81 -12 85 -20 2 -7 18 -16 35 -20 38 -8 63 -35 33 -35 -12 0 -26 8 -31 18 -10 16 -10 16 -11 0 0 -14 -9 -18 -37 -19 l-38 0 40 -16 c22 -9 45 -22 50 -29 6 -6 27 -15 48 -18 21 -4 35 -11 32 -16 -3 -4 18 -8 46 -8 29 -1 57 -6 62 -11 8 -8 -4 -11 -39 -11 -27 -1 -62 -7 -79 -15 -28 -13 -25 -13 58 -14 66 -1 88 -4 84 -13 -2 -7 -11 -13 -20 -13 -8 0 -19 -4 -23 -8 -4 -4 -15 -7 -25 -7 -10 0 -20 -4 -23 -8 -3 -5 12 -8 32 -8 68 -1 152 -15 166 -30 8 -8 19 -14 24 -14 5 0 12 -9 15 -21 4 -16 -1 -24 -26 -34 l-32 -14 33 -1 c29 0 48 -20 20 -20 -10 0 -10 -2 0 -9 11 -7 11 -11 -2 -24 -14 -14 -10 -16 44 -22 36 -4 57 -11 54 -17 -4 -5 -14 -8 -24 -5 -10 3 -34 1 -52 -3 -28 -7 -24 -8 28 -9 36 -1 68 -7 80 -16 18 -14 17 -14 -16 -15 -29 0 -32 -2 -17 -11 9 -5 17 -17 17 -24 0 -9 10 -15 25 -15 36 0 31 -18 -7 -29 -24 -7 -27 -9 -11 -10 29 -1 53 -11 53 -22 0 -5 -17 -7 -38 -5 -20 2 -55 0 -77 -4 -38 -7 -38 -8 -8 -9 17 0 35 -5 38 -11 3 -5 18 -10 33 -11 l27 -1 -25 -8 c-22 -7 -20 -8 15 -9 27 -1 36 -4 26 -10 -11 -7 -10 -10 5 -14 10 -2 -8 -6 -41 -7 l-60 -3 75 -10 75 -10 -35 -13 c-27 -10 -30 -13 -12 -13 12 -1 22 -4 23 -8 0 -5 2 -16 4 -26 3 -15 -1 -18 -20 -13 -13 3 -34 2 -47 -3 -18 -8 -12 -10 33 -10 40 -1 60 -6 70 -18 8 -9 9 -14 2 -10 -6 4 -18 0 -26 -8 -9 -9 -36 -16 -64 -16 l-48 -2 40 -7 c30 -5 34 -8 15 -10 -21 -2 -22 -3 -5 -7 11 -2 29 -8 40 -13 11 -5 27 -11 35 -13 9 -3 5 -6 -10 -7 -23 -1 -24 -2 -5 -11 19 -9 19 -9 -2 -5 -12 2 -37 0 -55 -4 l-33 -8 30 -1 c23 -1 27 -3 15 -11 -11 -7 -5 -10 23 -10 27 0 37 -4 34 -12 -2 -7 5 -18 17 -25 21 -12 21 -12 -4 -13 -22 -1 -23 -2 -7 -11 25 -14 10 -32 -21 -24 -22 5 -24 4 -13 -9 12 -14 6 -16 -55 -18 l-69 -1 77 -7 c43 -3 83 -11 90 -18 9 -9 6 -12 -16 -12 -15 0 -25 -4 -21 -10 3 -5 0 -10 -7 -11 -7 -1 -2 -5 12 -9 l25 -8 -28 -1 c-16 -1 -26 -6 -25 -13 4 -19 25 -38 42 -38 9 0 16 -5 16 -10 0 -6 -15 -8 -40 -4 -26 4 -40 3 -40 -4 0 -6 -15 -13 -32 -15 -22 -2 -14 -4 21 -5 41 -2 61 -8 78 -24 26 -25 34 -59 8 -38 -11 9 -15 9 -15 1 0 -7 -5 -9 -12 -5 -8 5 -9 2 -5 -9 4 -11 1 -17 -8 -17 -23 0 -6 -27 20 -34 19 -5 23 -12 21 -34 -2 -25 -5 -27 -46 -25 -33 2 -40 0 -25 -7 11 -5 31 -9 44 -9 29 -1 24 -9 -9 -14 -29 -5 -40 -27 -13 -27 14 0 18 -8 18 -35 0 -33 -2 -36 -38 -42 l-38 -6 22 -20 c15 -14 18 -22 10 -25 -8 -3 -5 -10 9 -22 l20 -18 -25 -6 c-14 -4 -23 -11 -20 -16 4 -6 -9 -10 -29 -10 -48 0 -57 -20 -9 -21 21 0 31 -3 23 -6 -8 -4 -21 -12 -28 -20 -11 -11 -11 -13 1 -13 7 0 14 -7 14 -15 0 -8 -6 -15 -14 -15 -16 0 -17 -12 -2 -27 7 -7 1 -12 -22 -17 -25 -5 -30 -9 -21 -18 18 -18 14 -25 -15 -26 -77 -1 -104 -6 -86 -15 9 -6 29 -10 45 -11 15 -1 27 -5 26 -11 0 -5 -9 -9 -20 -7 -23 4 -24 -23 -2 -32 28 -11 -22 -46 -65 -46 -20 0 -45 -7 -55 -15 -19 -14 -18 -15 12 -15 18 0 32 -5 32 -10 0 -6 -10 -8 -23 -5 -18 5 -23 2 -24 -14 -1 -14 4 -21 15 -21 13 0 14 -2 4 -8 -7 -5 -10 -16 -6 -25 5 -15 -2 -17 -50 -17 -31 0 -64 -4 -74 -9 -9 -6 -35 -13 -57 -17 -22 -4 -32 -9 -22 -11 9 -3 17 -9 17 -14 0 -5 11 -9 25 -9 14 0 25 -4 25 -9 0 -6 15 -11 33 -13 31 -4 30 -5 -13 -13 -36 -7 -40 -10 -22 -14 13 -3 23 -10 22 -16 -1 -5 7 -12 17 -16 14 -5 11 -8 -15 -14 -23 -5 -32 -11 -28 -21 4 -10 -4 -14 -32 -15 -30 -2 -32 -3 -9 -6 15 -2 27 -9 27 -14 0 -6 -9 -8 -19 -4 -11 3 -22 1 -26 -5 -4 -6 4 -10 19 -10 27 0 35 -15 14 -23 -7 -3 4 -6 25 -6 34 -1 56 -21 21 -21 -8 0 -12 -4 -9 -10 3 -6 16 -10 27 -10 21 0 21 0 1 -17 -11 -10 -18 -23 -16 -30 2 -6 -10 -14 -27 -18 -17 -4 -34 -13 -37 -21 -3 -8 -17 -15 -32 -15 -17 -1 -20 -3 -8 -6 14 -4 16 -8 6 -19 -9 -11 -7 -16 12 -23 13 -4 29 -7 34 -4 6 2 11 -6 12 -18 1 -13 -3 -19 -11 -16 -7 3 -48 1 -90 -5 -62 -9 -74 -14 -65 -25 7 -8 34 -13 73 -13 58 -1 60 -1 36 -15 -23 -13 -23 -14 -5 -16 11 -1 24 -1 28 0 21 4 144 -23 162 -35 11 -8 30 -14 42 -14 23 0 33 -19 11 -21 -7 0 -2 -5 12 -11 14 -6 31 -10 38 -9 6 1 12 -3 12 -9 0 -5 18 -10 40 -10 22 0 40 -4 40 -10 0 -5 -18 -10 -40 -10 -44 0 -48 -4 -24 -28 12 -12 13 -17 4 -20 -6 -2 -17 1 -23 7 -15 15 -30 14 -21 -1 5 -8 1 -7 -10 2 -21 17 -56 24 -56 11 0 -5 -7 -8 -16 -7 -9 0 -19 -5 -21 -11 -3 -8 3 -13 14 -13 10 0 25 -5 33 -11 12 -8 8 -10 -15 -8 -16 0 -66 0 -110 -1 -66 -1 -76 -3 -55 -12 l25 -10 -30 -13 -30 -13 35 -16 c32 -15 33 -16 8 -12 -16 2 -28 -1 -28 -5 0 -5 -7 -6 -16 -2 -9 3 -19 1 -23 -5 -3 -6 -31 -14 -61 -17 -30 -4 -58 -9 -62 -11 -12 -8 -9 -22 5 -21 35 1 46 -4 41 -18 -4 -9 -19 -15 -38 -15 -17 0 -49 -5 -71 -12 -22 -6 -45 -11 -52 -10 -6 2 -15 -3 -19 -9 -4 -7 -3 -9 3 -6 6 4 23 1 38 -7 30 -16 27 -19 -35 -37 l-45 -13 50 -12 50 -12 -42 -1 c-43 -1 -58 -16 -25 -24 13 -4 11 -5 -5 -6 -13 0 -23 -5 -23 -10 0 -5 10 -12 23 -14 18 -4 17 -5 -7 -6 -22 -1 -27 -5 -24 -19 4 -15 1 -18 -21 -14 -14 3 -32 9 -38 15 -9 6 -13 6 -13 -2 0 -6 -12 -11 -27 -12 -25 0 -26 -1 -8 -9 11 -5 35 -9 54 -9 l34 -1 -23 -20 c-13 -11 -27 -20 -32 -20 -5 0 -6 -4 -3 -10 3 -5 2 -10 -4 -10 -5 0 -13 5 -17 11 -4 8 -9 7 -14 -2 -5 -7 -2 -19 7 -28 20 -19 2 -26 -28 -11 -15 8 -19 9 -15 1 4 -6 0 -11 -11 -12 -12 0 -9 -4 10 -11 28 -10 37 -26 15 -25 -7 0 -37 -1 -66 -1 -66 -2 -61 -22 6 -22 34 0 43 -3 32 -10 -8 -5 -26 -10 -40 -11 -23 0 -23 -1 -5 -9 14 -6 1 -9 -45 -11 -56 -1 -60 -3 -30 -9 l35 -7 -30 -3 c-30 -2 -30 -2 -5 -10 l25 -8 -24 -1 c-29 -1 -21 -12 22 -28 32 -11 31 -12 -23 -13 l-55 -2 45 -11 c65 -16 79 -33 32 -42 -31 -6 -34 -8 -18 -17 26 -14 3 -28 -47 -28 -23 0 -36 -4 -32 -10 3 -5 19 -10 35 -10 40 0 45 -15 10 -30 -17 -7 -30 -16 -30 -20 0 -4 36 -8 80 -8 67 0 79 2 70 13 -8 10 -8 19 -1 34 9 16 8 20 -7 24 -9 3 -1 5 18 6 27 1 31 4 20 11 -12 8 -11 10 8 10 27 0 28 8 5 26 -17 13 -17 13 1 14 14 0 17 5 12 25 -4 14 -2 25 4 25 5 0 10 5 10 10 0 6 -12 8 -27 5 -26 -6 -26 -5 -8 7 19 12 19 13 -10 19 l-30 7 35 1 c27 1 31 4 20 11 -11 7 -7 10 18 10 20 0 31 4 27 10 -4 6 9 10 31 10 l37 0 -23 25 c-13 14 -19 25 -13 25 6 0 13 -5 15 -11 4 -13 48 -3 48 10 0 4 -10 13 -22 19 -22 10 -21 11 8 11 35 1 58 31 24 31 -19 0 -36 17 -27 26 2 3 27 7 55 11 53 6 83 33 37 33 -13 0 -27 5 -30 10 -4 6 7 10 25 10 17 0 29 4 26 9 -8 12 50 35 66 25 11 -6 11 -5 0 8 -11 14 -10 17 5 21 12 3 9 5 -9 6 -43 2 -44 21 -1 22 21 1 31 3 21 6 -9 2 -19 10 -22 18 -3 10 12 18 57 29 34 8 52 15 40 15 -13 1 -23 6 -23 12 0 8 -4 8 -13 1 -7 -6 -18 -7 -26 -3 -20 13 42 30 116 33 34 1 61 7 60 12 -1 5 13 10 31 12 46 3 53 14 9 14 -20 0 -39 4 -42 10 -8 12 38 24 93 24 29 0 42 4 42 14 0 7 8 12 18 11 34 -3 53 1 47 11 -4 6 -15 8 -26 5 -11 -4 -19 -2 -19 4 0 7 30 11 79 11 44 0 82 4 85 9 7 11 250 1 254 -10 2 -5 21 -12 42 -15 41 -7 65 -34 30 -34 -30 0 -19 -24 13 -30 47 -8 35 -25 -23 -30 -69 -6 -41 -18 49 -19 41 -1 68 -7 78 -16 8 -8 10 -15 4 -15 -6 0 -11 -4 -11 -10 0 -5 15 -10 33 -10 17 0 39 -5 47 -10 11 -7 3 -11 -30 -16 l-45 -8 35 -9 35 -10 -30 -6 c-25 -5 -27 -8 -12 -14 10 -4 31 -7 45 -7 l27 -1 -25 -15 -25 -15 33 4 c26 3 32 0 32 -15 0 -15 -8 -18 -42 -18 -24 0 -50 -5 -58 -10 -12 -8 -9 -10 12 -10 15 0 30 -4 33 -10 3 -5 -2 -10 -12 -10 -15 0 -16 -2 -3 -10 8 -5 35 -10 60 -10 28 0 56 -8 75 -20 23 -15 26 -20 11 -20 -26 0 -116 -33 -116 -42 0 -5 14 -8 31 -8 27 0 29 -2 15 -15 -8 -8 -22 -15 -30 -15 -31 0 -15 -20 17 -21 36 0 85 -17 55 -18 -28 -1 -21 -21 7 -21 25 0 36 -19 13 -21 -7 -1 -2 -4 11 -8 27 -7 39 -27 19 -30 -7 -1 -50 -4 -95 -7 -46 -4 -83 -10 -83 -15 0 -5 10 -9 22 -9 12 0 51 -5 87 -12 50 -9 60 -13 42 -18 -33 -8 -39 -30 -9 -30 35 0 60 -21 48 -40 -8 -13 -10 -13 -10 0 0 11 -3 11 -12 2 -7 -7 -23 -12 -37 -13 -24 0 -24 -1 -6 -9 14 -6 15 -9 5 -10 -10 -1 -9 -4 5 -10 17 -7 17 -9 3 -9 -10 -1 -15 -7 -12 -14 5 -15 -46 -34 -106 -40 -31 -3 -31 -4 8 -5 49 -2 55 -25 9 -30 -15 -2 -27 -8 -27 -13 0 -5 -7 -9 -16 -9 -8 0 -12 -4 -9 -10 3 -6 23 -10 43 -10 l37 -1 -30 -14 -30 -13 35 -2 c20 -1 28 -4 20 -8 -9 -3 8 -11 40 -18 45 -10 49 -12 22 -13 -18 0 -43 -6 -54 -12 -21 -11 -21 -12 3 -25 23 -13 23 -13 -17 -14 -24 0 -47 -6 -54 -15 -11 -13 -8 -15 21 -15 29 0 82 -19 55 -20 -6 0 -1 -6 10 -14 18 -14 18 -15 2 -21 -18 -7 -24 -30 -10 -38 4 -2 0 -2 -8 1 -8 3 -28 7 -45 10 -27 5 -29 4 -16 -12 8 -10 28 -23 45 -31 l31 -13 -42 -1 c-24 -1 -43 -5 -43 -11 0 -5 3 -9 8 -9 26 4 34 -1 22 -16 -10 -12 -9 -15 5 -15 15 0 15 -2 4 -16 -8 -9 -21 -13 -35 -10 -12 3 -29 0 -36 -7 -7 -7 -26 -18 -42 -25 -35 -16 -30 -21 31 -38 l48 -13 -40 -1 c-39 -1 -40 -1 -15 -14 24 -14 24 -14 -12 -14 -20 0 -47 -7 -60 -16 -22 -16 -22 -16 17 -16 22 0 48 -7 58 -14 16 -13 16 -14 -5 -21 -13 -4 -32 -11 -43 -15 -19 -8 -19 -8 3 -9 12 -1 22 -6 22 -12 0 -5 -4 -7 -10 -4 -5 3 -10 1 -10 -4 0 -6 -12 -11 -27 -11 -26 -1 -27 -2 -10 -14 16 -13 16 -14 -5 -20 -13 -3 -45 -7 -73 -8 -48 -1 -49 -2 -10 -6 32 -3 36 -6 20 -12 -17 -7 -15 -9 12 -9 24 -1 31 -5 29 -18 -2 -11 -12 -18 -27 -19 -13 -1 -31 -4 -39 -7 -8 -3 -22 -8 -30 -10 -8 -3 -1 -7 15 -8 17 -1 1 -5 -35 -9 l-65 -7 66 -1 c45 -1 71 -7 79 -17 11 -13 8 -15 -16 -16 -25 0 -26 -1 -9 -9 15 -6 6 -9 -35 -11 -48 -2 -51 -3 -20 -8 23 -4 36 -12 38 -24 5 -29 -28 -46 -93 -48 -47 -2 -52 -3 -20 -6 22 -3 44 -9 49 -14 15 -14 -24 -38 -62 -39 -18 0 -31 -4 -27 -9 3 -5 -3 -12 -12 -14 -10 -3 -2 -5 17 -6 l35 -2 -30 -24 c-16 -14 -41 -25 -55 -25 -14 -1 -36 -7 -50 -15 l-25 -14 28 -1 c15 0 27 -4 27 -10 0 -5 -10 -10 -22 -9 -29 1 -111 -11 -117 -17 -2 -2 13 -5 35 -5 21 -1 31 -3 22 -6 -21 -5 -24 -23 -5 -23 13 -1 -55 -28 -90 -37 -13 -3 -23 -9 -23 -14 0 -5 -19 -9 -42 -10 -47 -1 -108 -16 -74 -18 17 -1 17 -3 -5 -22 -13 -12 -23 -26 -21 -31 2 -6 -6 -8 -18 -5 -11 3 -23 1 -26 -4 -3 -5 0 -9 5 -9 6 0 11 -3 11 -7 0 -5 -15 -8 -32 -8 -184 -3 -202 -5 -182 -20 17 -14 12 -15 -61 -11 -44 3 -93 5 -108 5 -17 1 -26 5 -22 12 4 6 -2 13 -14 16 -11 3 -18 9 -15 14 3 5 -13 17 -36 26 -22 10 -40 21 -40 25 0 5 -7 8 -15 8 -8 0 -15 5 -15 10 0 6 -12 10 -27 10 -21 0 -24 3 -13 10 12 7 8 12 -18 23 -18 7 -29 16 -25 20 3 4 -4 7 -16 7 -20 0 -21 2 -7 15 8 8 20 15 27 15 7 0 2 8 -9 19 -12 10 -22 26 -22 35 0 13 -10 16 -50 16 -27 0 -50 5 -50 10 0 6 8 10 18 10 10 0 27 6 37 14 18 13 18 14 -5 26 -13 7 -46 16 -74 20 l-51 8 55 1 c36 2 49 5 36 10 -26 10 -30 42 -5 48 25 7 19 27 -9 31 -22 3 -32 22 -12 22 6 0 10 5 10 11 0 5 -5 7 -12 3 -7 -5 -9 -2 -5 9 4 10 0 17 -11 20 -13 4 -12 5 4 6 27 1 55 31 30 31 -9 0 -16 5 -16 10 0 6 7 10 15 10 28 0 15 15 -13 16 -16 1 -41 4 -56 8 -22 5 -26 10 -16 21 6 8 24 15 38 18 l27 3 -25 11 -25 11 33 8 c26 5 30 9 21 20 -6 8 -21 14 -33 14 -11 0 -32 3 -45 7 -23 6 -23 7 -5 14 10 4 39 8 63 8 34 1 42 4 37 16 -3 8 0 15 7 16 23 1 -28 18 -58 18 -42 2 -12 21 33 21 17 0 32 3 32 8 0 12 -50 31 -68 25 -15 -4 -15 -3 -2 6 11 8 12 11 2 11 -7 0 -10 4 -7 10 3 5 15 10 25 10 10 0 25 6 32 14 8 8 23 16 34 19 13 3 9 5 -11 6 -21 1 -26 4 -16 10 18 12 -1 23 -54 32 l-40 6 48 2 c26 0 47 6 47 11 0 6 10 10 23 11 12 0 16 3 8 6 -10 4 -11 7 -1 13 23 14 -1 30 -48 31 -48 1 -45 3 21 14 40 6 51 24 15 26 -19 1 -17 3 7 9 l30 8 -28 1 c-16 0 -26 5 -22 11 4 6 -11 10 -37 11 -40 1 -41 2 -13 9 17 4 50 8 74 9 37 1 42 3 31 16 -10 12 -9 15 4 15 10 0 14 4 11 10 -3 6 -1 10 4 10 6 0 11 7 11 15 0 8 -7 15 -15 15 -8 0 -15 5 -15 10 0 6 7 10 15 10 8 0 15 5 15 10 0 6 -7 10 -15 10 -9 0 -12 6 -9 15 4 9 19 15 40 15 52 0 40 17 -18 28 -38 7 -44 10 -23 11 23 1 27 3 15 11 -12 8 -10 10 10 11 14 1 36 1 48 0 15 -1 21 2 17 8 -3 6 -1 11 5 11 6 0 10 10 8 23 -3 19 -10 22 -60 25 -56 3 -58 2 -58 -23 0 -20 -5 -25 -24 -25 -25 0 -51 -22 -39 -33 3 -4 -7 -7 -23 -8 l-29 -1 33 -8 c43 -10 51 -19 24 -27 -12 -3 -22 -9 -22 -13 0 -4 -11 -7 -24 -7 -13 -1 -34 -8 -47 -17 l-23 -16 24 0 c19 0 22 -3 11 -9 -11 -7 -5 -10 20 -13 37 -3 46 -24 19 -45 -13 -11 -13 -12 3 -13 9 0 17 -4 17 -8 0 -5 -23 -8 -51 -9 -51 0 -98 -23 -48 -23 13 0 33 -8 44 -17 l20 -16 -20 7 c-17 5 -18 4 -5 -6 21 -18 22 -48 2 -41 -10 4 -13 2 -8 -5 4 -7 13 -12 21 -12 8 0 17 -5 20 -10 4 -6 3 -10 -2 -9 -19 3 -34 -2 -29 -10 7 -11 -27 -20 -79 -22 -22 0 -51 -5 -65 -10 -18 -6 -5 -8 45 -6 39 0 79 -4 90 -11 18 -10 18 -11 3 -12 -26 0 -22 -20 5 -21 17 -1 15 -3 -10 -10 -18 -5 -33 -14 -33 -19 0 -6 -7 -10 -15 -10 -21 0 -19 -20 3 -21 16 -1 16 -2 0 -6 -22 -5 -24 -23 -3 -23 8 0 15 -4 15 -10 0 -5 -12 -10 -26 -10 -22 0 -25 -2 -14 -15 7 -8 23 -15 36 -15 22 0 23 -2 12 -20 -9 -13 -24 -20 -45 -20 -17 0 -35 -4 -38 -10 -3 -5 3 -10 14 -10 11 0 23 -4 26 -10 3 -5 20 -14 38 -19 l32 -9 -37 -1 c-41 -1 -54 -21 -14 -21 14 0 28 -4 31 -10 4 -6 -11 -10 -38 -10 -30 0 -49 -6 -61 -19 -16 -17 -15 -19 21 -25 21 -3 52 -6 68 -6 22 0 26 -3 15 -10 -11 -7 -9 -11 13 -19 15 -6 27 -13 27 -17 0 -3 -7 -4 -15 0 -8 3 -15 1 -15 -4 0 -6 -8 -10 -17 -10 -9 0 -13 -3 -9 -7 4 -4 -10 -13 -31 -19 l-38 -12 37 -1 c27 -1 46 -10 70 -32 22 -21 25 -26 8 -15 -31 20 -46 21 -30 1 11 -13 7 -15 -28 -15 -23 0 -44 -5 -47 -10 -4 -6 8 -10 29 -10 20 0 36 -4 36 -10 0 -10 -76 -5 -126 9 -15 4 -34 17 -42 29 -13 20 -13 22 2 16 9 -3 16 -10 16 -15 0 -5 5 -9 10 -9 19 0 9 15 -25 38 -19 12 -45 22 -59 22 -13 0 -29 7 -36 15 -10 12 -9 15 4 15 10 0 14 5 11 10 -3 6 -19 10 -35 10 -38 0 -60 9 -60 26 0 8 -9 14 -19 14 -11 0 -22 4 -25 9 -3 5 -27 12 -53 16 l-48 7 23 18 c12 10 22 21 22 24 0 9 -35 7 -44 -2 -4 -4 -25 -11 -47 -17 -49 -12 -54 -28 -14 -36 21 -5 23 -7 9 -8 -62 -3 -102 -36 -64 -53 8 -4 -21 -8 -65 -9 -44 -1 -69 -3 -55 -6 57 -9 70 -14 80 -33 10 -18 9 -20 -12 -15 -13 3 -45 1 -73 -4 -37 -6 -42 -9 -19 -10 16 0 38 -7 48 -14 17 -13 16 -14 -13 -15 -52 -3 -61 -5 -61 -14 0 -4 -9 -8 -20 -8 -11 0 -20 -4 -20 -10 0 -5 -24 -11 -52 -12 -41 -1 -45 -2 -18 -5 19 -3 40 -9 45 -15 7 -8 4 -9 -8 -4 -11 3 -24 3 -30 -1 -7 -4 -30 -9 -51 -10 -37 -3 -38 -2 -22 15 15 18 14 18 -41 14 -53 -4 -57 -3 -44 12 12 14 9 16 -30 17 -42 1 -42 2 15 10 60 9 86 19 48 19 -11 0 -24 5 -27 10 -3 6 -29 10 -57 10 -28 0 -49 3 -45 6 3 4 27 6 52 6 51 -1 61 15 15 25 -16 3 -30 9 -30 14 0 5 -21 9 -46 9 -27 0 -43 4 -39 10 4 6 -13 11 -42 11 -45 2 -46 2 -13 8 33 6 34 7 10 14 -14 4 -43 7 -65 8 -40 1 -40 1 -10 10 17 5 39 7 50 5 11 -2 29 0 40 4 19 8 19 9 1 9 -15 1 -16 4 -6 16 16 19 -9 30 -48 21 -15 -4 -35 -7 -46 -7 -10 0 -20 -8 -23 -18 -4 -14 -16 -17 -67 -18 -34 0 -73 -4 -87 -8 -23 -8 -23 -8 11 -21 19 -7 30 -13 23 -13 -6 -1 -24 -6 -40 -12 -19 -7 -24 -12 -14 -18 8 -6 2 -10 -19 -15 -23 -4 -31 -10 -26 -21 4 -11 -2 -15 -27 -15 -27 -1 -29 -2 -14 -11 31 -18 18 -28 -18 -13 -44 18 -54 18 -29 -1 19 -14 19 -14 -1 -15 -15 0 -17 -2 -7 -9 11 -6 10 -10 -3 -15 -14 -5 -15 -9 -5 -21 11 -13 7 -15 -21 -15 -23 0 -30 -3 -20 -9 7 -5 10 -14 6 -20 -5 -9 -10 -9 -20 -1 -10 8 -14 7 -18 -2 -4 -10 -9 -9 -19 3 -7 9 -22 19 -33 21 -16 4 -14 8 15 19 34 13 35 13 10 20 l-25 7 25 1 c19 1 22 3 10 11 -8 5 -11 12 -7 16 4 4 -1 13 -11 20 -15 12 -14 13 11 14 16 0 26 4 22 10 -3 6 0 10 7 11 7 1 2 5 -12 9 l-25 8 25 1 c20 1 22 3 10 11 -10 6 -11 10 -2 10 19 0 14 30 -5 31 -13 0 -14 2 -4 6 11 5 11 7 0 14 -10 6 -6 9 14 9 20 0 27 5 27 19 0 21 -18 30 -63 32 -22 1 -25 3 -10 6 30 6 39 33 10 34 -21 0 -21 1 -2 9 19 8 19 9 -2 9 -14 1 -23 7 -23 16 0 18 50 21 68 3 9 -9 9 -4 2 23 -6 19 -15 36 -20 37 -6 2 0 12 12 22 23 19 23 19 3 34 -17 13 -18 15 -3 16 12 0 16 7 14 27 -3 30 -23 41 -81 44 -31 2 -34 3 -12 6 15 2 27 9 27 14 0 5 9 9 21 9 11 0 17 5 14 10 -3 6 0 10 7 10 9 0 9 3 -2 10 -11 7 -11 10 -2 10 7 0 10 5 7 10 -3 5 0 10 7 10 7 0 1 11 -14 24 -18 16 -23 27 -16 34 6 6 -4 17 -31 32 -34 20 -38 26 -30 42 7 13 6 18 -3 19 -7 1 2 4 20 8 l32 6 -23 25 c-13 14 -24 28 -25 33 -9 36 -29 47 -84 47 -32 0 -58 4 -58 8 0 5 28 8 61 8 70 -1 86 17 42 49 -13 10 -34 27 -45 37 -12 10 -28 18 -37 18 -9 1 -2 7 14 15 17 7 24 14 16 14 -7 1 -11 7 -7 16 3 8 1 15 -5 15 -6 0 -9 6 -6 13 3 8 -7 18 -24 26 -16 7 -26 17 -23 23 5 7 -2 9 -20 6 -14 -3 -26 -1 -26 3 0 5 9 9 20 9 11 0 20 5 20 10 0 6 -8 10 -17 10 -10 0 -25 5 -33 10 -13 8 -12 11 5 24 19 15 18 15 -17 16 -40 0 -64 19 -26 21 13 1 28 1 34 0 7 -1 14 4 17 12 6 16 -37 67 -58 67 -9 0 -13 5 -10 10 4 6 -5 10 -20 10 -14 0 -28 7 -31 15 -4 8 -24 18 -45 21 -44 7 -63 24 -27 24 19 0 20 2 8 11 -12 8 -10 10 10 5 89 -18 87 -18 43 3 -46 23 -63 41 -39 41 39 0 0 36 -47 45 -20 4 -34 11 -31 16 3 5 -3 10 -13 10 -10 1 0 5 22 9 36 6 37 7 15 13 -14 3 -43 9 -65 13 -32 5 -36 8 -19 13 18 5 20 10 13 29 -7 19 -16 22 -58 22 -27 0 -53 4 -56 10 -4 6 7 10 26 10 53 0 20 20 -39 23 -36 2 -56 9 -66 22 -9 12 -21 16 -40 13 -14 -3 -29 -1 -32 3 -3 5 13 9 36 9 25 0 39 4 35 10 -4 6 6 10 22 11 l28 1 -25 8 c-14 4 -42 8 -62 9 -46 1 -50 16 -7 25 59 12 23 36 -78 53 -18 3 -33 9 -33 13 0 9 -39 23 -57 21 -8 -1 -10 5 -7 14 5 12 -3 15 -41 15 -39 0 -45 3 -36 13 17 21 3 27 -70 27 -50 0 -68 4 -72 15 -8 19 9 28 49 27 38 -2 51 12 34 33 -10 12 -9 15 9 15 13 0 19 4 16 10 -4 7 8 8 37 4 32 -4 39 -3 28 5 -13 9 -12 11 5 12 l20 0 -20 10 c-15 7 -10 8 23 6 25 -1 42 2 42 8 0 6 16 17 35 25 42 16 44 26 9 34 -17 5 -24 12 -20 21 3 8 1 15 -4 15 -6 0 -10 4 -10 9 0 4 12 6 28 4 21 -4 24 -2 12 6 -13 9 -12 12 7 17 26 7 21 24 -7 24 -13 0 -17 5 -14 14 3 9 12 12 21 9 11 -4 14 -2 9 5 -4 7 -27 12 -51 12 -75 0 -86 14 -15 20 63 5 64 6 38 19 -32 16 -35 28 -10 34 12 3 10 5 -8 7 -22 1 -23 2 -5 9 18 7 18 9 -8 35 -15 15 -27 31 -27 36 0 4 -6 11 -12 13 -8 3 -5 6 5 6 10 1 15 6 12 11 -3 6 2 10 12 11 13 0 12 4 -8 12 -14 7 -24 18 -22 25 3 6 -4 12 -14 13 -10 1 2 6 27 11 44 10 44 10 20 24 -14 7 -33 13 -43 14 -24 0 -11 20 14 20 26 0 24 19 -3 30 -23 9 -23 9 2 10 16 1 20 4 10 7 -8 4 -21 12 -28 20 -7 7 -33 13 -58 13 -24 0 -44 5 -44 10 0 6 16 10 35 8 19 -1 37 1 41 5 4 4 0 7 -9 7 -10 0 -17 7 -17 15 0 8 -8 15 -17 16 -15 0 -15 2 2 9 18 7 18 9 -10 19 -23 10 -26 14 -15 21 11 7 5 10 -22 10 -20 0 -43 7 -51 15 -8 8 -17 11 -21 8 -3 -4 -6 -3 -6 0 0 4 12 13 28 21 26 15 26 15 4 16 -13 0 -30 7 -39 16 -9 8 -22 13 -30 10 -8 -3 -11 -1 -8 4 4 6 -12 10 -39 10 -66 0 -57 18 11 22 46 2 59 7 61 21 3 14 -4 17 -40 18 -24 1 -35 3 -25 6 22 6 12 23 -14 23 -25 0 -24 16 2 23 l20 6 -20 20 c-12 12 -32 21 -46 21 -14 0 -25 5 -25 10 0 6 19 10 43 10 51 0 32 19 -23 21 -26 1 -29 3 -11 6 19 4 21 7 10 14 -10 6 -6 9 16 9 l30 1 -25 12 -25 11 33 4 c45 5 30 22 -19 22 -24 0 -38 4 -34 10 3 6 18 10 32 10 45 0 18 11 -37 15 -71 5 -84 21 -26 29 25 4 46 11 46 16 0 5 -6 7 -14 4 -8 -3 -17 -1 -21 5 -3 6 -1 11 6 11 9 0 9 3 0 14 -9 11 -7 15 11 20 23 6 23 7 4 21 -11 8 -36 15 -55 15 -36 0 -84 19 -51 20 13 0 13 1 0 10 -13 8 -13 9 0 14 8 2 29 9 45 14 l30 10 -29 1 c-41 1 -27 11 31 21 45 7 46 8 11 9 -52 1 -56 18 -7 26 58 10 31 24 -51 26 -39 1 -51 4 -31 6 25 3 31 7 21 13 -10 6 -1 12 32 21 45 12 46 13 23 25 -13 7 -32 14 -42 17 -10 3 -4 5 13 6 60 2 106 41 49 41 -13 0 -22 6 -22 15 0 8 9 15 19 15 11 0 16 5 13 10 -3 6 -30 10 -58 10 -85 0 -91 17 -9 26 40 3 72 11 72 15 0 5 -11 9 -24 9 -28 0 -78 24 -69 33 3 4 22 8 42 8 20 1 28 3 17 6 -15 4 -16 7 -5 14 12 7 12 9 0 9 -11 0 -11 3 -1 15 7 8 21 15 32 15 10 0 16 5 13 10 -3 6 -14 10 -24 10 -9 0 -25 6 -35 13 -17 12 -15 14 19 15 21 1 40 3 42 5 8 9 -9 35 -30 45 -19 9 -19 11 -4 11 10 1 15 6 12 11 -3 6 0 10 7 10 10 0 9 3 -2 10 -16 10 -15 11 23 28 35 15 26 32 -17 32 -22 0 -33 5 -33 15 0 13 30 21 60 16 5 -1 6 3 2 9 -3 5 3 10 14 10 13 0 19 6 18 18 -1 21 2 21 -114 23 -73 2 -81 4 -48 10 22 4 65 8 95 9 67 0 90 12 74 37 -7 11 -28 20 -55 23 -35 4 -40 7 -23 13 12 4 43 8 68 9 53 1 53 9 -2 27 -42 14 -53 41 -16 41 13 0 26 5 30 11 4 8 9 8 17 0 13 -13 30 -15 23 -2 -4 5 0 12 6 14 7 3 -1 6 -18 6 -47 1 -50 15 -7 28 l38 11 -39 1 c-22 1 -36 4 -33 8 4 3 23 6 42 5 19 -1 35 3 35 8 0 6 7 10 15 10 8 0 15 5 15 10 0 6 14 10 32 10 43 0 29 10 -34 26 l-53 12 55 1 c63 1 100 17 63 27 -13 4 -23 10 -23 15 0 5 -10 9 -22 9 -21 0 -21 1 6 15 15 8 37 15 47 15 10 0 21 5 24 10 3 6 18 10 33 11 20 0 22 2 10 7 -14 6 -15 10 -4 31 9 15 16 20 20 12 12 -20 53 -13 59 10 3 12 10 18 16 14 6 -3 11 -4 11 -1 0 2 3 11 6 20 4 12 0 16 -17 17 -13 1 0 5 28 9 76 11 88 17 73 35 -7 8 -21 15 -32 15 -10 0 -17 4 -13 9 3 5 -5 12 -17 14 -16 3 -12 5 12 6 50 2 81 12 74 23 -4 6 2 5 14 -1 23 -12 63 -15 47 -3 -16 12 -16 39 0 46 8 3 15 12 15 20 0 17 27 29 43 19 7 -3 3 3 -7 15 l-19 22 34 0 c32 1 33 1 15 15 -15 11 -16 15 -5 17 8 0 -6 4 -31 8 -38 6 -41 8 -23 15 13 4 21 11 18 15 -7 11 15 17 88 26 31 3 60 10 63 15 5 8 -72 14 -118 10 -9 -1 -19 3 -23 9 -4 6 16 10 59 10 37 0 66 4 66 10 0 6 -11 10 -25 10 -43 0 -27 17 22 25 33 5 42 9 32 16 -10 6 -1 9 29 9 35 0 42 3 42 20 0 12 -7 20 -16 20 -27 0 2 28 37 35 16 4 32 12 35 18 4 7 4 9 -1 5 -4 -4 -20 -1 -36 7 -15 8 -38 15 -51 15 -53 1 12 20 90 26 50 4 86 12 93 21 17 19 9 23 -53 26 -31 1 -54 5 -52 9 12 20 166 74 182 64 5 -3 14 -1 22 5 11 6 5 9 -20 10 -23 1 -28 3 -15 7 l20 5 -20 9 c-15 6 -13 7 11 4 41 -6 105 4 98 15 -3 5 9 9 26 9 17 0 39 7 48 16 15 15 14 18 -3 30 -17 13 -14 14 29 14 29 0 45 4 41 10 -3 6 2 10 12 10 11 0 28 7 39 15 10 8 29 15 42 15 12 0 21 5 20 12 -2 7 12 17 30 23 18 6 29 14 26 18 -4 4 2 7 13 7 11 0 30 9 42 19 l22 20 -28 4 c-23 3 -22 4 10 6 20 0 37 6 37 12 0 7 12 9 33 5 17 -3 39 -6 47 -6 8 1 28 1 43 1 29 0 28 18 -1 20 -10 0 -5 6 13 14 38 18 69 19 59 3 -5 -7 -3 -8 7 -2 8 5 61 10 119 11 58 2 121 7 140 12 19 4 44 7 55 4 11 -2 58 -6 105 -8z m1607 -871 c-3 -3 -12 -4 -19 -1 -8 3 -5 6 6 6 11 1 17 -2 13 -5z m-3630 -320 c-3 -3 -12 -4 -19 -1 -8 3 -5 6 6 6 11 1 17 -2 13 -5z m-227 -314 c0 -5 -7 -10 -16 -10 -8 0 -12 5 -9 10 3 6 10 10 16 10 5 0 9 -4 9 -10z m110 -1180 c0 -5 -8 -10 -17 -10 -15 0 -16 2 -3 10 19 12 20 12 20 0z m3910 -800 c0 -5 -2 -10 -4 -10 -3 0 -8 5 -11 10 -3 6 -1 10 4 10 6 0 11 -4 11 -10z m-3690 -320 c0 -5 -7 -10 -15 -10 -8 0 -15 5 -15 10 0 6 7 10 15 10 8 0 15 -4 15 -10z m-335 -20 c-4 -6 20 -10 66 -10 52 0 77 -4 90 -16 10 -9 37 -17 61 -19 24 -1 61 -7 83 -13 22 -6 48 -9 58 -6 10 3 29 -1 42 -10 28 -18 39 -20 30 -6 -3 6 -2 10 4 10 5 0 9 -9 8 -20 -1 -14 -8 -20 -25 -20 -13 0 -20 -4 -17 -10 3 -5 30 -10 58 -11 55 0 116 -17 69 -18 -13 -1 -20 -5 -17 -11 4 -6 -19 -10 -62 -11 -84 -1 -57 -17 30 -18 31 -1 57 -5 57 -11 0 -5 10 -10 23 -10 12 -1 36 -7 52 -15 30 -13 30 -13 5 -15 l-25 -2 25 -8 c14 -4 40 -8 58 -9 22 -1 32 -5 29 -13 -2 -7 -13 -12 -23 -10 -18 2 -18 2 0 -13 19 -14 17 -15 -21 -15 -23 0 -45 -4 -48 -10 -4 -6 26 -10 82 -10 99 0 141 -14 78 -26 -32 -6 -35 -8 -19 -17 11 -5 24 -16 30 -23 6 -7 25 -15 42 -16 24 -2 29 -5 20 -15 -6 -7 -17 -13 -24 -13 -8 0 -14 -4 -14 -10 0 -5 9 -10 21 -10 11 0 18 -4 14 -9 -3 -5 5 -12 17 -14 13 -2 2 -5 -24 -6 -54 -1 -66 -21 -13 -21 37 0 85 -18 85 -32 0 -4 8 -8 18 -8 14 0 15 -2 2 -10 -11 -7 -5 -10 25 -10 44 0 58 -7 63 -30 2 -8 8 -16 13 -18 20 -8 7 -21 -23 -24 -38 -3 -44 -21 -10 -26 41 -6 18 -32 -29 -32 -10 0 -19 -4 -19 -10 0 -5 20 -10 44 -10 25 0 48 -4 51 -10 4 -6 -11 -10 -37 -10 -42 -1 -43 -1 -18 -15 14 -8 44 -14 66 -15 28 0 44 -5 48 -15 4 -11 -1 -15 -19 -15 -13 0 -27 -4 -30 -10 -4 -6 10 -10 35 -10 24 0 48 -7 56 -15 17 -16 19 -14 -32 -30 -22 -7 -8 -24 37 -42 22 -8 37 -18 35 -21 -3 -3 -1 -11 5 -19 9 -10 8 -13 0 -13 -7 0 -10 -4 -7 -9 7 -10 -16 -21 -47 -22 -16 -1 -13 -3 11 -10 17 -5 32 -14 32 -19 0 -6 9 -10 20 -10 27 0 25 -16 -2 -25 -20 -7 -18 -8 15 -14 21 -3 38 -10 39 -16 0 -5 3 -16 6 -24 3 -7 1 -16 -4 -20 -16 -11 -15 -51 2 -51 8 0 14 -7 12 -17 -2 -11 12 -27 36 -43 31 -20 35 -26 20 -29 -34 -6 -46 -22 -28 -36 10 -6 14 -17 10 -23 -4 -7 -1 -12 6 -13 9 0 10 -2 1 -5 -7 -3 -22 0 -34 6 -13 7 -19 8 -15 2 4 -6 -6 -12 -21 -15 -23 -3 -22 -4 9 -6 20 0 48 -5 61 -10 22 -9 24 -14 20 -50 -3 -26 -1 -41 6 -41 19 0 12 -18 -9 -25 -11 -3 -20 -12 -20 -20 0 -7 9 -15 20 -18 26 -7 26 -27 -1 -27 -11 0 -17 -4 -14 -10 4 -6 -11 -10 -37 -11 -24 0 -36 -3 -28 -6 21 -9 40 -30 33 -37 -4 -3 5 -6 18 -6 18 0 20 -3 10 -9 -11 -7 -9 -10 10 -13 21 -3 22 -4 8 -18 -15 -14 -15 -16 4 -32 20 -18 20 -18 -4 -19 -22 0 -23 -1 -4 -9 11 -5 14 -9 6 -9 -9 -1 -11 -8 -8 -22 5 -17 2 -20 -16 -15 -12 3 -29 1 -37 -4 -12 -8 -9 -10 11 -10 14 0 34 -7 45 -15 18 -13 17 -14 -19 -15 -41 0 -42 -14 -3 -30 21 -9 21 -9 -2 -9 -13 -1 -20 -5 -17 -11 3 -5 -2 -11 -12 -11 -10 -1 -4 -5 12 -9 17 -4 22 -8 13 -9 -10 0 -18 -5 -18 -11 0 -5 -9 -10 -20 -10 -11 0 -20 -4 -20 -10 0 -5 -9 -10 -19 -10 -11 0 -23 -4 -26 -10 -4 -6 1 -7 11 -3 11 4 15 3 11 -4 -4 -6 -1 -14 5 -16 7 -3 4 -6 -7 -6 -16 -1 -17 -3 -6 -10 8 -5 21 -7 29 -3 10 3 13 0 10 -9 -2 -8 -15 -15 -29 -17 -13 -2 -33 -7 -44 -13 -11 -5 -40 -16 -65 -24 l-45 -14 46 0 c38 -1 47 -4 45 -18 -2 -26 -15 -33 -71 -34 -31 -1 -39 -3 -20 -6 17 -2 41 -6 55 -9 l25 -6 -24 -12 c-23 -13 -23 -14 -5 -25 17 -11 15 -12 -11 -7 -16 2 -41 7 -55 11 -19 5 -22 4 -10 -4 12 -9 10 -11 -10 -11 -14 0 -36 -4 -50 -8 -22 -6 -19 -8 20 -13 l45 -6 -33 -8 c-26 -6 -33 -12 -29 -26 6 -21 -8 -26 -16 -6 -3 7 -6 5 -6 -5 -1 -23 -27 -23 -35 -1 -6 14 -8 14 -21 -3 -12 -17 -11 -20 3 -26 21 -8 -151 -2 -238 9 -41 6 -77 17 -97 31 -17 12 -39 22 -48 22 -9 0 -13 5 -10 10 3 6 -3 10 -15 10 -12 0 -18 5 -15 10 4 6 -29 10 -91 10 -104 0 -120 5 -41 12 56 6 67 13 33 22 -14 3 -30 15 -36 26 -6 11 -19 20 -30 20 -11 0 -27 11 -36 25 -9 14 -21 25 -28 25 -6 0 -23 11 -38 25 -17 16 -39 25 -58 25 -19 0 -29 4 -25 10 4 6 -8 16 -25 24 -34 14 -39 24 -18 37 8 6 -1 9 -27 10 -33 1 -36 2 -15 8 22 6 23 8 6 14 -11 4 -16 13 -12 22 4 11 -2 15 -22 15 -21 0 -24 2 -12 10 13 8 11 11 -7 16 -13 4 -20 10 -17 15 3 5 -4 9 -15 9 -12 0 -21 5 -21 10 0 6 -11 8 -25 4 -14 -3 -25 -2 -25 4 0 5 -11 7 -24 5 -20 -4 -24 -2 -20 14 3 10 15 23 27 28 12 6 21 18 19 27 -1 9 5 19 15 21 10 3 2 6 -17 7 -19 1 -27 4 -17 7 26 7 10 23 -23 23 -22 0 -28 4 -24 15 4 9 19 15 38 15 23 0 27 3 16 9 -8 6 -17 8 -21 5 -4 -2 -6 4 -5 13 1 13 -18 22 -74 39 -41 12 -68 23 -59 23 19 1 52 35 42 44 -3 4 -25 7 -47 8 l-41 1 33 9 c39 12 41 24 5 43 l-28 15 30 1 c21 0 26 3 16 9 -7 5 -22 6 -32 4 -10 -3 -19 0 -19 6 0 6 17 12 38 12 26 1 30 3 13 6 -13 3 -31 11 -38 19 -12 12 -10 14 14 14 25 1 26 2 10 11 -10 6 -27 9 -38 6 -10 -3 -19 -1 -19 4 0 5 17 9 38 10 l37 1 -34 12 c-30 11 -32 13 -16 26 16 13 16 15 -2 21 -10 4 -31 8 -47 8 -34 1 -30 10 6 13 52 4 48 24 -10 54 l-55 29 34 8 c61 16 63 17 52 28 -5 5 -20 11 -32 14 -13 2 -28 9 -35 14 -6 5 -29 11 -51 13 l-40 4 45 9 c33 6 39 10 25 15 -17 6 -17 7 -2 13 9 3 17 12 17 18 0 7 -3 10 -6 6 -3 -3 -12 0 -19 6 -11 10 -10 15 2 30 13 14 14 17 2 18 -8 0 -6 4 6 9 18 8 18 9 -5 10 -24 1 -25 1 -5 16 19 14 19 15 -3 20 -26 7 -19 24 11 25 15 1 9 5 -18 14 -40 13 -40 13 -9 14 18 1 34 7 37 15 8 19 -1 26 -35 26 -25 0 -27 2 -17 18 6 10 25 24 41 31 40 18 32 31 -33 52 l-54 18 58 0 c31 1 57 6 57 11 0 6 -8 10 -17 10 -15 0 -14 3 5 18 27 21 20 32 -22 32 -20 0 -26 3 -18 9 7 4 12 12 11 17 -1 5 0 11 1 14 8 23 6 42 -6 47 -25 9 5 33 42 33 45 0 43 16 -3 26 l-38 7 30 7 c30 6 29 6 -17 20 -46 14 -64 30 -33 30 8 0 15 5 15 10 0 6 12 10 26 10 14 0 23 4 19 10 -3 6 -17 10 -30 10 -13 0 -27 5 -30 10 -4 6 16 10 52 10 51 1 56 2 40 14 -22 17 -6 32 38 39 29 4 29 4 -5 6 l-35 2 30 24 c17 14 36 25 44 25 8 0 11 6 7 15 -3 9 0 15 8 15 8 0 17 6 19 13 4 9 8 8 16 -3 9 -13 11 -13 11 3 0 15 -23 23 -53 18 -5 -1 -6 3 -2 9 3 6 11 7 17 4 7 -4 8 -2 4 4 -4 7 -17 12 -29 13 -15 1 -8 5 18 13 22 7 40 17 40 22 0 9 7 10 70 14 26 1 27 3 10 10 -16 7 -11 9 22 9 23 1 49 4 57 7 15 6 15 8 -1 20 -16 12 -15 13 12 15 30 1 30 1 5 9 -27 9 -19 13 18 10 12 -1 25 6 28 14 3 9 10 16 16 16 5 0 6 -4 3 -10z m4765 -130 c13 -8 13 -10 -2 -10 -9 0 -20 5 -23 10 -8 13 5 13 25 0z m-3850 -314 c0 -3 -4 -8 -10 -11 -5 -3 -10 -1 -10 4 0 6 5 11 10 11 6 0 10 -2 10 -4z m2267 -1012 c-3 -3 -12 -4 -19 -1 -8 3 -5 6 6 6 11 1 17 -2 13 -5z m-130 -467 c3 -4 -20 -7 -53 -6 -34 0 -51 3 -41 8 22 8 84 7 94 -2z m-1672 -17 c-3 -5 -12 -10 -20 -10 -8 0 -17 5 -20 10 -4 6 5 10 20 10 15 0 24 -4 20 -10z m1818 -4 c29 -22 21 -39 -10 -23 -16 8 -39 20 -53 25 -24 10 -24 11 10 11 19 0 43 -6 53 -13z m-1793 -38 c0 -6 -6 -5 -15 2 -8 7 -15 14 -15 16 0 2 7 1 15 -2 8 -4 15 -11 15 -16z m-174 -53 c17 -13 16 -14 -15 -5 -41 11 -51 20 -25 20 11 0 29 -7 40 -15z m-21 -55 c3 -5 -3 -10 -14 -10 -12 0 -21 5 -21 10 0 6 6 10 14 10 8 0 18 -4 21 -10z"/>
<path d="M10848 7943 c7 -3 16 -2 19 1 4 3 -2 6 -13 5 -11 0 -14 -3 -6 -6z"/>
<path d="M8178 7733 c7 -3 16 -2 19 1 4 3 -2 6 -13 5 -11 0 -14 -3 -6 -6z"/>
<path d="M7618 7253 c7 -3 16 -2 19 1 4 3 -2 6 -13 5 -11 0 -14 -3 -6 -6z"/>
<path d="M8232 7150 c-12 -5 -57 -9 -100 -8 -57 1 -87 -3 -115 -17 l-39 -18 24 -14 23 -13 -30 1 c-52 2 -66 -1 -60 -11 3 -5 0 -10 -7 -10 -9 0 -9 -3 2 -10 11 -7 6 -10 -22 -10 -20 0 -43 -7 -52 -15 -8 -8 -21 -16 -28 -16 -7 -1 5 -5 27 -9 l40 -7 -33 -12 c-26 -11 -30 -16 -21 -27 6 -8 7 -14 2 -14 -6 0 -10 -12 -9 -27 1 -22 -3 -28 -19 -26 -11 1 -23 -4 -27 -10 -6 -9 -8 -9 -8 1 0 6 -5 12 -11 12 -5 0 -8 -4 -4 -9 3 -5 -3 -12 -12 -14 -10 -3 2 -5 27 -6 30 -1 40 -4 31 -10 -7 -5 -10 -14 -7 -20 5 -7 -6 -11 -31 -12 -21 0 -47 -4 -58 -9 -19 -8 -19 -9 2 -9 13 -1 37 -10 54 -20 l32 -20 -27 -12 c-17 -8 -25 -18 -21 -27 3 -9 0 -12 -8 -9 -7 2 -30 1 -52 -3 l-40 -8 50 -2 c49 -2 49 -2 18 -11 -37 -11 -44 -29 -12 -29 28 0 19 -24 -10 -28 -23 -4 -23 -4 4 -18 15 -8 31 -11 37 -8 5 3 4 -3 -3 -14 -7 -12 -17 -18 -21 -16 -14 9 -8 -7 9 -24 16 -16 13 -17 -43 -23 -32 -3 -49 -6 -36 -7 12 -1 22 -6 22 -12 0 -5 12 -11 28 -11 19 -1 21 -3 8 -6 -13 -3 -15 -7 -7 -12 15 -10 23 -51 10 -51 -6 0 -8 -4 -5 -9 4 -5 0 -12 -6 -14 -7 -3 1 -6 17 -7 l30 -1 -24 -19 c-18 -15 -19 -20 -7 -20 9 0 16 -7 16 -15 0 -18 -12 -19 -28 -3 -8 8 -12 9 -12 1 0 -6 -8 -14 -17 -16 -17 -4 -17 -5 0 -6 10 0 15 -5 12 -11 -3 -6 5 -10 19 -10 14 0 27 -4 30 -9 8 -12 -24 -23 -38 -13 -6 5 -21 3 -36 -4 -24 -13 -24 -14 16 -14 47 0 87 -28 82 -57 -4 -26 -41 -53 -75 -54 -15 0 -23 -2 -18 -4 6 -2 36 -11 68 -21 31 -9 55 -19 52 -22 -3 -3 -35 -7 -73 -10 -78 -4 -96 -12 -30 -12 58 0 108 -10 108 -21 0 -12 -47 -11 -55 1 -9 15 -25 12 -25 -5 0 -11 11 -15 43 -15 29 0 38 -3 27 -9 -8 -6 -17 -8 -21 -5 -4 2 -10 0 -14 -5 -3 -6 10 -17 30 -27 19 -9 32 -20 29 -25 -3 -5 -8 -7 -12 -5 -4 2 -13 -2 -20 -10 -13 -15 -1 -23 53 -37 17 -4 16 -5 -5 -6 -14 -1 -33 -8 -42 -15 -16 -12 -15 -14 10 -25 l27 -13 -30 -16 -30 -16 40 -7 c83 -14 122 -29 77 -29 -26 0 -29 -17 -4 -23 10 -3 6 -5 -10 -6 -42 -2 -33 -21 10 -22 l37 -1 -30 -13 -30 -14 35 -1 35 -2 -30 -11 -30 -11 34 -6 c22 -3 35 -11 37 -22 1 -10 -3 -18 -9 -18 -33 -1 24 -20 58 -20 51 0 28 -19 -25 -21 -28 0 -31 -2 -15 -8 l20 -8 -20 -5 c-11 -2 14 -7 54 -11 85 -8 121 -29 96 -54 -8 -8 -15 -18 -15 -22 0 -9 59 -21 106 -21 18 0 45 -7 60 -15 l29 -15 -29 0 c-35 0 -30 -7 14 -20 27 -8 31 -7 26 7 -5 12 -2 14 16 9 13 -4 47 -9 75 -13 29 -3 58 -12 64 -19 13 -16 43 -19 34 -4 -7 11 28 14 39 3 10 -10 46 -11 40 -1 -3 4 9 8 26 8 25 0 31 4 26 15 -4 12 2 15 27 15 17 -1 58 4 90 11 51 10 57 13 51 31 -5 18 -3 20 21 14 23 -6 26 -4 20 13 -5 17 0 20 52 24 83 8 102 12 115 25 9 9 9 12 -1 12 -7 0 -9 5 -6 10 3 6 20 10 36 10 18 0 28 4 24 10 -3 6 0 10 7 10 8 0 6 5 -5 11 -23 13 -13 29 19 29 13 0 24 5 24 10 0 6 19 10 41 10 37 0 40 2 28 16 -17 21 3 34 54 34 23 0 36 4 32 10 -9 14 19 12 34 -2 11 -11 13 -10 9 2 -3 9 -20 16 -46 18 -39 3 -62 22 -27 22 9 0 15 7 13 17 -4 21 32 40 87 46 22 3 54 11 70 18 30 12 39 15 63 17 26 4 0 22 -31 23 -30 0 -31 1 -8 10 13 5 35 8 50 7 14 -1 41 2 59 6 26 6 32 12 27 26 -11 36 80 56 111 25 17 -17 49 -21 39 -5 -4 6 5 5 19 -2 14 -6 26 -15 26 -20 0 -5 -5 -6 -12 -2 -7 5 -9 2 -5 -9 3 -9 1 -18 -6 -21 -7 -2 7 -5 29 -5 43 -1 99 -34 89 -52 -8 -12 11 -12 34 0 13 7 17 5 18 -9 1 -10 -6 -21 -15 -23 -15 -4 -15 -5 1 -6 29 -2 21 -39 -10 -44 -16 -2 2 -5 38 -6 43 0 71 -6 78 -15 9 -11 9 -15 -1 -19 -13 -5 25 -11 51 -8 7 2 10 -2 7 -8 -6 -10 1 -19 39 -46 19 -14 19 -14 -7 -15 -15 0 -30 -4 -33 -10 -4 -6 8 -10 27 -10 19 0 43 -7 54 -15 24 -18 48 -20 38 -2 -6 10 -4 10 7 0 7 -7 30 -13 51 -13 21 0 50 -8 64 -17 25 -16 25 -17 8 -30 -16 -12 -14 -13 20 -13 45 0 80 -26 44 -33 -13 -2 -4 -5 19 -6 35 -1 40 -4 36 -19 -4 -17 5 -19 111 -25 95 -5 121 -10 144 -27 20 -15 51 -23 116 -28 73 -7 85 -6 70 5 -16 11 -12 13 30 13 29 0 45 4 41 10 -6 10 16 13 73 10 23 -1 32 3 32 14 0 9 7 16 15 16 22 0 19 47 -2 53 -11 3 -8 5 9 6 18 1 26 5 22 14 -3 10 9 14 48 16 57 2 80 14 71 37 -5 14 22 19 70 15 9 -1 17 2 17 7 0 10 -47 22 -87 22 -14 0 -21 4 -18 10 3 6 17 10 31 10 15 0 24 6 24 15 0 8 9 15 20 15 23 0 70 20 70 31 0 4 -12 10 -27 14 -26 7 -23 9 27 20 30 7 45 13 33 14 -33 1 -28 20 8 35 23 10 28 15 18 22 -10 6 -6 11 16 20 28 11 28 12 7 18 -31 10 -17 26 23 26 26 0 33 4 31 18 -2 14 -16 18 -77 22 -81 5 -73 20 11 20 70 0 72 18 3 23 -45 3 -53 5 -35 11 14 5 21 14 18 22 -4 10 5 14 32 15 20 1 50 4 66 8 l30 6 -30 14 -29 14 25 7 25 7 -25 5 c-22 5 -22 5 -4 7 23 1 43 33 25 39 -18 6 -2 22 22 23 12 1 2 6 -23 11 -37 9 -41 12 -25 19 18 7 18 8 -5 8 -42 2 -1 21 45 21 l40 0 -33 20 c-18 11 -37 18 -43 15 -5 -4 -19 1 -31 9 l-22 16 27 0 c16 0 26 5 25 12 -2 7 8 14 22 16 14 2 29 7 34 12 11 11 -28 31 -64 32 -17 1 -26 6 -24 12 3 7 19 10 39 8 19 -2 42 -1 51 2 12 5 10 10 -12 31 -20 19 -23 25 -10 25 9 0 16 5 16 10 0 6 -17 10 -37 10 -26 0 -33 3 -24 9 11 7 10 11 -5 20 -16 8 -10 10 29 11 30 0 46 4 42 10 -3 6 -34 10 -68 10 -76 0 -106 14 -51 25 21 3 58 9 83 11 51 5 62 11 41 24 -12 8 -10 10 8 10 12 0 22 5 22 10 0 10 -29 14 -80 11 l-25 -1 25 14 25 15 -35 1 c-19 1 -44 5 -55 9 -14 6 -6 10 35 15 43 6 50 10 35 16 -13 6 -15 9 -5 9 13 1 13 2 0 11 -12 8 -9 10 13 10 54 0 16 20 -41 21 -31 1 -49 3 -39 6 9 2 17 8 17 13 0 5 13 5 30 0 35 -10 40 -3 8 10 -22 8 -22 9 5 9 32 1 36 18 5 30 -14 5 -17 10 -10 15 18 11 14 23 -10 30 -18 5 -20 8 -9 15 24 15 -39 39 -111 43 -36 2 -64 7 -61 12 3 4 23 6 44 3 47 -6 58 3 22 19 l-28 11 30 7 c72 17 70 23 -12 30 -56 5 -83 12 -87 22 -4 11 5 14 40 14 43 0 46 2 40 23 -3 12 -6 25 -6 30 0 4 -18 7 -39 7 -22 0 -41 4 -43 10 -2 5 -23 11 -48 12 -36 3 -45 7 -44 21 2 13 -5 18 -20 16 -11 0 -34 -1 -51 0 -23 1 -27 3 -15 11 23 15 -232 17 -390 3 -69 -6 -78 -8 -50 -14 32 -6 30 -7 -20 -10 -89 -5 -94 -5 -118 -13 -12 -4 -20 -12 -17 -17 4 -5 -6 -14 -20 -19 -36 -14 -42 -13 -19 5 10 8 14 15 8 15 -6 0 -17 -7 -24 -14 -6 -8 -30 -17 -53 -19 l-42 -4 43 -1 c30 -1 42 -6 42 -17 0 -8 7 -15 15 -15 19 0 20 -16 1 -23 -8 -3 -20 1 -26 9 -14 16 -31 19 -28 4 2 -6 -8 -16 -22 -23 -14 -8 -24 -19 -22 -26 2 -8 -8 -12 -30 -10 -18 1 -48 1 -67 0 -28 -1 -33 -4 -28 -21 4 -15 0 -20 -13 -20 -27 0 -33 -28 -7 -36 22 -7 22 -8 -3 -15 -14 -4 -46 -7 -72 -8 -37 -1 -50 -6 -58 -22 -7 -12 -20 -20 -33 -19 -34 3 -47 1 -47 -9 0 -5 6 -9 13 -8 6 0 25 -1 40 -1 37 -2 25 -22 -13 -22 -41 0 -60 -10 -60 -30 0 -23 -81 -54 -121 -46 -22 4 -29 2 -29 -9 0 -8 7 -15 15 -15 9 0 12 -6 8 -16 -4 -10 -17 -14 -42 -13 -20 1 -65 1 -101 0 -53 -3 -59 -5 -35 -11 17 -4 26 -8 20 -9 -5 -1 -4 -5 3 -10 9 -5 -7 -10 -43 -15 -50 -6 -60 -4 -75 14 -14 16 -30 20 -86 21 -48 0 -63 3 -49 9 11 5 32 9 48 9 15 1 27 5 27 10 0 10 -48 21 -99 22 -20 0 -30 3 -23 6 22 9 2 23 -34 23 -41 0 -44 12 -7 26 25 9 26 10 9 27 -16 16 -50 20 -183 21 -13 0 -23 3 -23 7 0 4 -3 14 -6 22 -3 10 4 18 23 25 25 9 22 11 -29 11 -31 1 -60 6 -63 11 -3 6 -32 11 -63 11 l-57 2 60 12 c33 7 50 13 39 14 -14 1 -21 7 -20 19 1 13 -9 18 -38 22 -35 4 -37 7 -23 19 23 19 12 31 -29 31 -19 0 -34 5 -34 11 0 20 -28 38 -69 45 -23 4 -41 9 -41 13 0 11 -165 77 -215 86 -16 3 -77 7 -135 9 -58 2 -112 6 -120 9 -8 3 -25 2 -38 -3z m2008 -234 c0 -11 -19 -15 -25 -6 -3 5 1 10 9 10 9 0 16 -2 16 -4z m-903 -292 c-3 -3 -12 -4 -19 -1 -8 3 -5 6 6 6 11 1 17 -2 13 -5z m2046 -281 c-7 -2 -19 -2 -25 0 -7 3 -2 5 12 5 14 0 19 -2 13 -5z"/>
<path d="M7358 6153 c7 -3 16 -2 19 1 4 3 -2 6 -13 5 -11 0 -14 -3 -6 -6z"/>
<path d="M9457 5879 c7 -7 15 -10 18 -7 3 3 -2 9 -12 12 -14 6 -15 5 -6 -5z"/>
<path d="M7885 5630 c3 -5 8 -10 11 -10 2 0 4 5 4 10 0 6 -5 10 -11 10 -5 0 -7 -4 -4 -10z"/>
<path d="M10102 5277 c-23 -4 -40 -12 -37 -18 4 -5 -11 -9 -31 -9 -39 0 -38 -14 1 -23 18 -4 18 -5 -2 -6 -30 -1 -40 -21 -11 -21 22 -1 22 -1 4 -15 -11 -8 -31 -16 -45 -16 -21 -1 -22 -2 -6 -6 11 -3 28 -11 39 -18 17 -12 15 -14 -20 -24 -22 -6 -43 -11 -48 -11 -18 0 -69 -62 -57 -69 8 -5 5 -13 -9 -26 -11 -10 -17 -22 -14 -27 4 -6 -3 -5 -15 1 -14 8 -21 8 -21 1 0 -5 -23 -10 -52 -11 -46 0 -50 -2 -30 -11 29 -14 30 -38 0 -30 -14 3 -19 1 -14 -6 3 -6 20 -13 36 -17 39 -8 38 -21 -1 -29 -17 -3 -28 -10 -24 -16 3 -5 1 -10 -5 -10 -6 0 -8 -4 -5 -10 4 -6 -7 -10 -26 -10 -25 0 -29 -3 -20 -13 13 -17 5 -27 -23 -27 -15 0 -17 -3 -8 -9 9 -5 -2 -10 -33 -14 -35 -5 -50 -3 -62 8 -8 8 -10 15 -4 15 6 0 11 5 11 10 0 6 -9 10 -20 10 -11 0 -20 4 -20 9 0 5 -12 11 -27 14 -16 3 -46 13 -67 22 -30 13 -36 19 -25 26 10 6 2 9 -26 10 -38 1 -39 1 -12 9 16 5 36 6 45 2 15 -5 15 -4 3 11 -7 9 -24 17 -37 17 -28 0 -30 8 -6 26 11 9 13 13 4 14 -7 0 -11 4 -7 9 10 17 -32 31 -97 32 -54 0 -59 2 -35 11 15 5 25 14 21 19 -3 5 6 9 20 9 14 0 26 5 26 10 0 6 -9 10 -20 10 -10 0 -27 8 -37 18 -25 25 -68 42 -108 42 -44 0 -57 20 -13 21 18 1 25 3 16 6 -9 2 -20 12 -23 22 -3 11 -19 21 -37 25 -38 8 -182 17 -150 10 12 -3 22 -10 22 -16 0 -5 10 -18 23 -29 l22 -19 -28 10 c-16 5 -36 10 -45 10 -15 0 -15 -2 -2 -10 13 -8 12 -10 -5 -11 -11 -1 -29 0 -40 1 -19 1 -19 1 -2 -12 15 -12 12 -13 -28 -10 -28 3 -45 0 -45 -7 0 -7 27 -11 73 -12 49 0 66 -3 52 -9 -11 -5 -35 -9 -52 -9 -18 -1 -33 -5 -33 -11 0 -5 4 -10 10 -10 5 0 8 -13 6 -30 -2 -22 1 -30 13 -31 9 0 3 -7 -14 -14 l-30 -13 30 -5 c30 -4 30 -4 3 -6 -16 0 -28 -6 -28 -12 0 -7 9 -9 21 -6 30 8 131 -13 126 -27 -4 -11 -6 -11 -97 -14 -72 -3 -47 -21 30 -23 52 -1 53 -1 28 -13 l-28 -12 60 -28 c32 -16 58 -33 57 -39 -1 -7 19 -14 45 -17 50 -6 75 -19 42 -22 -10 0 -23 -2 -29 -3 -5 -2 -17 -3 -25 -4 -30 -3 13 -18 73 -26 31 -3 57 -11 57 -16 0 -5 -5 -9 -11 -9 -21 0 2 -18 31 -23 29 -6 43 -25 18 -24 -35 1 -58 -4 -58 -13 0 -5 13 -10 29 -10 17 0 33 -4 36 -10 3 -5 16 -10 27 -10 37 0 14 -9 -62 -25 -110 -23 -110 -35 0 -35 52 0 102 -5 110 -10 11 -7 5 -10 -25 -11 l-40 -2 35 -7 c35 -7 29 -11 -22 -14 -36 -2 -47 -15 -25 -27 9 -6 17 -16 17 -24 0 -7 9 -17 20 -20 27 -9 25 -25 -2 -25 -32 0 -68 -11 -68 -20 0 -4 10 -11 23 -16 17 -6 9 -8 -33 -11 -30 -2 -62 -10 -70 -17 -8 -8 -25 -17 -37 -20 -26 -8 -31 -25 -8 -27 24 -2 29 -4 50 -16 17 -11 13 -12 -31 -13 -29 0 -64 -6 -78 -14 l-27 -13 31 -6 c27 -6 29 -9 18 -26 -7 -11 -15 -18 -19 -15 -4 2 -12 -2 -16 -11 -5 -8 -26 -21 -48 -29 -22 -8 -32 -15 -22 -15 9 -1 25 -5 35 -10 9 -5 28 -14 42 -19 24 -10 24 -11 -10 -13 -19 -1 -39 -3 -45 -4 -5 -2 -25 -3 -44 -4 -29 -1 -32 -3 -21 -16 7 -8 22 -15 34 -15 20 0 19 -1 -4 -13 -14 -8 -24 -19 -22 -25 1 -8 -14 -12 -43 -12 -43 0 -60 -12 -32 -23 9 -4 8 -6 -2 -6 -11 -1 -11 -4 -1 -16 9 -10 9 -15 1 -15 -6 0 -11 -7 -11 -16 0 -8 -4 -13 -9 -9 -5 3 -12 1 -16 -5 -3 -6 4 -10 17 -11 22 0 22 -1 3 -9 -19 -8 -19 -8 5 -18 19 -8 20 -11 7 -11 -10 -1 -15 -5 -12 -11 4 -6 -5 -10 -20 -10 -15 0 -24 -4 -20 -10 3 -5 33 -10 65 -10 58 0 85 -14 59 -31 -10 -6 -4 -9 17 -9 17 0 37 -6 43 -13 9 -11 0 -17 -47 -28 l-57 -14 50 -3 c27 -2 55 -8 62 -14 7 -5 17 -7 23 -3 5 3 10 0 10 -7 0 -9 2 -10 8 -1 4 6 21 13 37 16 21 3 15 5 -20 6 -58 3 -40 15 39 26 25 4 43 11 40 16 -3 5 -1 9 5 9 5 0 13 -4 16 -10 3 -5 11 -10 17 -10 7 0 6 6 -2 15 -7 8 -19 15 -28 15 -9 0 -6 7 12 21 14 11 24 24 21 29 -3 5 12 10 32 12 l38 3 -40 14 c-31 10 -40 18 -41 36 -2 19 5 25 30 31 17 4 47 7 66 6 19 -1 51 2 70 7 36 8 31 13 -24 26 -43 9 -14 25 46 25 50 0 79 19 31 21 l-28 1 30 10 c17 5 43 9 58 9 17 -1 26 3 22 9 -3 5 -14 10 -23 11 -14 0 -14 2 -2 6 48 19 46 56 -3 69 l-32 7 30 5 c26 4 27 5 10 12 -14 5 0 10 47 15 37 4 65 11 62 16 -3 5 7 9 23 10 27 0 27 1 6 9 -13 5 -23 12 -23 16 0 3 10 3 23 0 12 -4 37 -9 56 -12 18 -2 41 -9 50 -14 13 -8 12 -9 -7 -10 -13 0 -21 -4 -18 -9 4 -5 0 -12 -6 -14 -7 -3 -2 -6 12 -8 21 -1 19 -3 -10 -9 -34 -7 -33 -7 14 -9 90 -2 159 -34 105 -48 -17 -5 -11 -9 27 -22 43 -15 75 -45 43 -40 -8 1 -23 0 -34 -1 -15 -1 -11 -4 11 -11 34 -10 55 -49 26 -49 -33 0 24 -29 74 -37 37 -7 49 -13 48 -26 -1 -10 5 -17 17 -17 23 0 24 -7 3 -28 -16 -15 -15 -17 10 -27 14 -6 23 -14 20 -18 -4 -4 8 -8 27 -8 23 -1 27 -3 12 -6 -27 -5 -31 -23 -5 -23 9 -1 28 -7 42 -15 22 -12 23 -14 8 -20 -33 -13 -18 -25 31 -25 50 0 94 -17 98 -38 2 -7 -9 -12 -29 -12 -21 0 -29 -3 -22 -10 6 -6 35 -8 71 -4 53 6 60 9 56 25 -4 13 0 19 12 19 25 0 12 24 -15 28 -18 3 -20 6 -9 13 12 8 12 10 -1 18 -19 13 -15 16 45 34 29 9 40 16 27 16 -20 1 -21 3 -10 21 11 17 24 20 77 20 59 0 63 1 45 15 -10 8 -31 15 -46 15 -16 0 -28 5 -28 11 0 6 -9 8 -21 4 -28 -9 -15 13 15 25 14 6 -5 9 -64 10 -103 2 -148 14 -79 22 25 3 58 13 74 24 l28 18 -32 14 c-24 9 -37 10 -46 2 -9 -8 -15 -8 -20 0 -4 6 -3 9 2 8 7 -2 49 17 62 28 10 9 -54 52 -103 68 -37 13 -52 22 -44 27 24 15 -7 30 -73 36 -70 7 -58 21 19 22 72 1 46 21 -30 23 -56 1 -62 2 -25 5 26 2 45 8 42 14 -4 5 -2 9 4 9 27 0 -5 29 -45 40 -24 7 -47 17 -50 21 -3 5 -15 9 -27 9 -14 0 -18 3 -10 8 24 15 7 47 -34 62 -33 12 -38 17 -27 28 7 6 18 12 24 12 5 0 10 4 10 9 0 9 -57 21 -105 21 -23 0 -27 3 -15 10 8 5 27 10 43 10 42 0 28 24 -23 36 l-45 12 59 1 c51 1 57 3 46 16 -10 12 -10 15 1 16 8 0 -4 6 -26 14 l-40 13 41 1 c23 1 54 7 69 15 l28 14 -29 5 c-27 4 -26 4 6 6 51 2 76 20 30 22 l-35 1 35 12 c24 9 30 15 20 19 -8 3 5 6 30 7 25 1 39 4 32 7 -6 2 -10 9 -6 14 3 5 -4 9 -16 9 -12 0 -18 5 -15 10 3 6 24 10 45 10 42 0 61 14 33 24 -14 6 -14 8 3 21 10 8 31 15 46 15 15 0 30 5 33 10 3 6 1 10 -6 10 -22 0 -129 34 -129 41 0 4 10 7 23 7 50 1 209 20 214 26 4 3 -6 6 -22 6 -34 0 -95 21 -95 32 0 4 24 8 53 9 41 0 47 2 30 9 -28 12 -30 24 -3 17 11 -3 20 -1 20 4 0 5 11 9 25 9 14 0 28 7 31 15 4 8 15 15 25 15 27 0 24 20 -3 21 -13 1 -5 5 17 9 37 7 37 7 9 9 -61 2 -123 14 -119 21 3 4 26 11 52 15 33 5 42 9 32 16 -10 6 -8 9 11 9 42 0 5 24 -58 36 -50 10 -53 12 -20 13 64 2 54 31 -11 31 -15 0 -36 7 -47 15 -10 8 -31 15 -46 15 -43 0 -33 20 10 21 28 0 32 2 17 8 -19 8 -19 8 0 19 18 11 17 12 -10 10 -16 -1 -49 -6 -73 -11z m123 -197 c-3 -5 -14 -10 -23 -9 -14 0 -13 2 3 9 27 11 27 11 20 0z m-890 -170 c3 -5 1 -10 -4 -10 -6 0 -11 5 -11 10 0 6 2 10 4 10 3 0 8 -4 11 -10z m-460 -940 c3 -5 1 -10 -4 -10 -6 0 -11 5 -11 10 0 6 2 10 4 10 3 0 8 -4 11 -10z m5 -106 c0 -2 -7 -4 -15 -4 -8 0 -15 4 -15 10 0 5 7 7 15 4 8 -4 15 -8 15 -10z"/>
<path d="M8970 5262 c0 -4 9 -8 20 -9 11 -1 20 2 20 8 0 5 -9 9 -20 9 -11 0 -20 -4 -20 -8z"/>
<path d="M9020 5261 c0 -6 14 -11 31 -11 17 0 28 -4 24 -10 -7 -11 17 -12 55 -1 21 6 17 8 -25 13 -27 4 -58 10 -67 13 -11 4 -18 3 -18 -4z"/>
<path d="M11948 4533 c7 -3 16 -2 19 1 4 3 -2 6 -13 5 -11 0 -14 -3 -6 -6z"/>
<path d="M8125 4400 c3 -5 11 -10 16 -10 6 0 7 5 4 10 -3 6 -11 10 -16 10 -6 0 -7 -4 -4 -10z"/>
<path d="M10560 3791 c0 -5 -10 -12 -22 -14 -13 -2 4 -5 36 -6 56 -1 72 5 30 12 -10 1 -25 6 -31 10 -7 5 -13 4 -13 -2z"/>
<path d="M10295 3760 c3 -5 10 -10 16 -10 5 0 9 5 9 10 0 6 -7 10 -16 10 -8 0 -12 -4 -9 -10z"/>
<path d="M10408 3393 c12 -2 30 -2 40 0 9 3 -1 5 -23 4 -22 0 -30 -2 -17 -4z"/>
<path d="M10660 2649 c0 -5 5 -7 10 -4 6 3 10 8 10 11 0 2 -4 4 -10 4 -5 0 -10 -5 -10 -11z"/>
<path d="M8408 3633 c7 -3 16 -2 19 1 4 3 -2 6 -13 5 -11 0 -14 -3 -6 -6z"/>
</g>
</svg>